<?xml version="1.0" standalone="no"?>
<!DOCTYPE svg PUBLIC "-//W3C//DTD SVG 20010904//EN"
 "http://www.w3.org/TR/2001/REC-SVG-20010904/DTD/svg10.dtd">
<svg version="1.0" xmlns="http://www.w3.org/2000/svg"
 width="501.000000pt" height="501.000000pt" viewBox="0 0 501.000000 501.000000"
 preserveAspectRatio="xMidYMid meet">

<g transform="translate(0.000000,501.000000) scale(0.100000,-0.100000)"
fill="#000000" stroke="none">
<path d="M2295 3644 c-59 -14 -131 -51 -153 -77 -9 -10 -8 -19 4 -35 19 -27
26 -27 92 0 86 36 82 56 82 -443 0 -235 -3 -434 -6 -443 -3 -9 -17 -16 -31
-16 -61 0 -220 115 -243 176 -6 14 -10 54 -10 90 l0 64 -40 0 -40 0 0 -97 0
-97 74 -73 c55 -54 96 -83 156 -113 85 -40 185 -69 198 -56 4 4 8 241 10 526
2 442 5 520 17 530 16 13 19 38 9 64 -7 19 -38 19 -119 0z"/>
<path d="M2530 3090 l0 -570 28 0 c45 0 133 27 208 65 90 44 189 145 239 245
19 38 35 76 35 84 0 8 -36 48 -80 89 -44 40 -80 80 -80 89 0 8 36 47 80 87 44
40 80 79 80 88 0 36 -86 177 -141 232 -85 85 -243 161 -336 161 l-33 0 0 -570z
m200 422 c90 -52 208 -186 198 -224 -2 -7 -35 -43 -75 -81 l-72 -67 -70 0
c-59 0 -72 3 -81 19 -11 21 -14 348 -4 376 8 21 42 14 104 -23z m123 -537 c42
-39 77 -76 77 -84 0 -24 -58 -107 -110 -155 -27 -25 -78 -60 -115 -78 -56 -28
-67 -31 -75 -18 -5 8 -10 97 -10 197 0 218 0 217 95 211 61 -4 63 -5 138 -73z"/>
<path d="M2053 2188 c-6 -7 -13 -72 -17 -145 -5 -112 -4 -134 10 -147 8 -9 23
-16 32 -16 39 1 44 15 50 134 l5 117 31 -3 c26 -2 32 -8 34 -31 3 -23 -1 -28
-27 -33 -55 -11 -34 -64 25 -64 104 0 140 154 44 187 -48 16 -175 17 -187 1z"/>
<path d="M2768 2186 c-91 -34 -123 -82 -116 -173 6 -69 41 -107 116 -129 91
-27 174 -1 226 69 29 40 29 134 0 173 -44 60 -152 88 -226 60z m105 -68 c33
-17 46 -39 47 -79 0 -68 -57 -109 -122 -87 -35 12 -48 35 -48 85 1 71 64 113
123 81z"/>
<path d="M3720 2188 c-80 -23 -120 -75 -120 -158 0 -65 21 -105 68 -129 79
-39 183 -34 197 10 9 29 -9 39 -68 39 -27 0 -57 4 -67 10 -26 14 -42 65 -29
98 18 48 38 62 90 62 65 0 79 7 79 40 0 20 -6 29 -22 34 -32 8 -87 6 -128 -6z"/>
<path d="M866 2174 c-3 -9 -6 -56 -6 -105 0 -103 -15 -129 -74 -129 -36 0 -53
-19 -33 -39 15 -15 91 -14 131 3 41 17 43 23 51 158 7 100 6 107 -13 117 -29
15 -49 14 -56 -5z"/>
<path d="M1362 2173 c-5 -10 -13 -72 -17 -139 -5 -101 -4 -122 9 -133 20 -16
54 1 60 32 11 50 12 237 2 247 -16 16 -44 12 -54 -7z"/>
<path d="M2347 2183 c-3 -5 -6 -73 -8 -153 l-4 -145 38 -3 c24 -2 39 1 42 10
3 7 9 63 13 123 8 119 11 125 68 111 20 -5 25 -12 22 -34 -2 -20 -9 -28 -28
-30 -14 -2 -29 -8 -34 -12 -10 -10 29 -126 52 -152 15 -18 76 -25 86 -10 2 4
-7 34 -21 65 l-26 58 31 27 c19 15 35 41 38 59 5 27 1 37 -24 63 -30 30 -32
30 -136 30 -57 0 -107 -3 -109 -7z"/>
<path d="M3157 2184 c-4 -4 -7 -37 -7 -73 -1 -70 -13 -147 -25 -159 -4 -4 -28
-7 -53 -7 -46 0 -47 -1 -45 -29 1 -16 4 -31 7 -33 3 -3 33 -6 68 -7 70 -1 112
18 127 57 5 12 10 74 12 137 l4 115 -40 3 c-23 2 -44 0 -48 -4z"/>
<path d="M3315 2178 c-2 -7 -6 -77 -10 -156 l-6 -143 123 3 123 3 3 33 3 32
-75 0 c-74 0 -76 1 -76 25 0 23 4 24 63 27 62 3 62 3 65 36 l3 32 -60 0 c-58
0 -61 1 -61 25 0 24 2 25 75 25 l75 0 0 35 0 35 -120 0 c-88 0 -122 -3 -125
-12z"/>
<path d="M3902 2158 c3 -31 5 -33 47 -36 l44 -3 -5 -109 c-3 -59 -2 -113 2
-120 4 -6 24 -10 46 -8 l39 3 8 109 c4 61 10 112 12 115 3 2 24 7 48 10 39 6
42 8 42 36 l0 30 -143 3 -143 3 3 -33z"/>
<path d="M1032 2168 c-5 -7 -12 -71 -13 -143 l-4 -130 108 0 c102 0 110 1 128
24 26 31 24 54 -7 90 l-26 31 26 31 c31 37 33 62 6 89 -17 17 -33 20 -114 20
-63 0 -97 -4 -104 -12z m158 -43 c28 -34 -14 -71 -71 -63 -18 2 -25 10 -27 32
-2 16 2 32 10 37 21 14 74 10 88 -6z m-6 -121 c37 -36 13 -66 -50 -62 -43 3
-49 6 -52 27 -7 45 67 70 102 35z"/>
<path d="M1516 2172 c-2 -4 -8 -70 -12 -146 l-7 -138 29 4 c29 3 29 3 38 96 5
57 12 92 20 92 6 0 30 -36 54 -80 24 -44 50 -87 58 -95 19 -18 78 -20 92 -2 5
6 11 71 13 142 l4 130 -24 3 c-34 5 -41 -12 -41 -106 0 -108 -16 -107 -76 3
-23 44 -48 86 -54 93 -12 13 -86 17 -94 4z"/>
</g>
</svg>
